<svg xmlns="http://www.w3.org/2000/svg" viewBox="0 0 110 110"><defs><style>.cls-1{fill:#fff;}</style></defs><title>Chat</title><g id="ICON"><g id="_Group_" data-name="&lt;Group&gt;"><path class="cls-1" d="M86.69,54.62a8.87,8.87,0,0,0-5.24-2.55C79.69,39.75,66.87,30.19,51.31,30.19,34.55,30.19,21,41.3,21,55A22.33,22.33,0,0,0,28.5,71.36v8.45l8.11-3.1a34.29,34.29,0,0,0,7,2.29,36.65,36.65,0,0,0,7.71.81,35,35,0,0,0,18-4.81l4.81,4.81,12.6-12.6A8.9,8.9,0,0,0,86.69,54.62Z"/><path d="M87.33,54a9.68,9.68,0,0,0-5.1-2.69c-2.2-12.59-15.35-22-30.92-22C34.08,29.29,20.06,40.82,20.06,55A23.16,23.16,0,0,0,27.6,71.75v8.06a.91.91,0,0,0,.39.74.86.86,0,0,0,.51.16.87.87,0,0,0,.32-.06l7.76-3a35.16,35.16,0,0,0,6.83,2.2,37.62,37.62,0,0,0,7.9.83,35.84,35.84,0,0,0,17.81-4.6l4.33,4.34a.92.92,0,0,0,1.28,0l12.6-12.6a9.81,9.81,0,0,0,0-13.87ZM43.79,78.12A33.13,33.13,0,0,1,37,75.89a.87.87,0,0,0-.69,0L29.4,78.5V71.36a.88.88,0,0,0-.29-.66A21.49,21.49,0,0,1,21.86,55c0-13.18,13.21-23.91,29.45-23.91,14.5,0,26.77,8.53,29.06,20a9.71,9.71,0,0,0-6.28,2.29,9.69,9.69,0,0,0-6.32-2.31h0a9.81,9.81,0,0,0-6.92,16.74l0,0,6.94,6.94a34.12,34.12,0,0,1-16.49,4.12A36,36,0,0,1,43.79,78.12ZM86.05,66.57l-12,12-4.17-4.18-7.78-7.79h0a8,8,0,0,1,5.65-13.66h0a7.92,7.92,0,0,1,5.66,2.35h0a1.1,1.1,0,0,0,.31.2.91.91,0,0,0,1-.19A8,8,0,0,1,88.4,60.92,7.88,7.88,0,0,1,86.05,66.57Z"/></g></g></svg>