<svg xmlns="http://www.w3.org/2000/svg" viewBox="0 0 110 110"><defs><style>.cls-1{fill:#fff;}</style></defs><title>Email</title><g id="ICON"><g id="_Group_" data-name="&lt;Group&gt;"><rect class="cls-1" x="21" y="37.28" width="68" height="35.44"/><path d="M89.9,37.28a.24.24,0,0,0,0-.08.53.53,0,0,0,0-.13s0,0,0-.08a.61.61,0,0,0,0-.12.91.91,0,0,0-.11-.16.73.73,0,0,0-.08-.09.94.94,0,0,0-.18-.12.31.31,0,0,0-.1,0,.88.88,0,0,0-.32-.07H21a.88.88,0,0,0-.32.07l-.1,0-.18.12a.73.73,0,0,0-.08.09.91.91,0,0,0-.11.16.61.61,0,0,0-.05.12s0,0,0,.08a.53.53,0,0,0,0,.13.24.24,0,0,0,0,.08V72.72s0,0,0,.06a1.38,1.38,0,0,0,0,.2s0,0,0,0l.06.11a.57.57,0,0,0,.11.16l.08.09a.81.81,0,0,0,.18.12l.09,0a1.13,1.13,0,0,0,.32.06H89a1.13,1.13,0,0,0,.32-.06l.09,0a.81.81,0,0,0,.18-.12l.08-.09a.57.57,0,0,0,.11-.16l.06-.11s0,0,0,0a1.38,1.38,0,0,0,0-.2s0,0,0-.06ZM88.1,71,60.88,53,88.1,38.77ZM85.34,38.18,55,54,24.66,38.18Zm-63.44.59L49.12,53,21.9,71Zm2.09,33L50.94,54l3.64,1.91a.93.93,0,0,0,.84,0L59.06,54,86,71.82Z"/></g></g></svg>