<svg xmlns="http://www.w3.org/2000/svg" viewBox="0 0 110 110"><defs><style>.cls-1{fill:#fff;}</style></defs><title>Call</title><g id="ICON"><g id="_Group_" data-name="&lt;Group&gt;"><path class="cls-1" d="M67.42,18H42.14a5,5,0,0,0-5,5V81.16a5,5,0,0,0,5,5H67.42a5,5,0,0,0,5-5V23A5,5,0,0,0,67.42,18Z"/><path d="M67.42,17.25H42.14A5.75,5.75,0,0,0,36.39,23V81.16a5.75,5.75,0,0,0,5.75,5.74H67.42a5.75,5.75,0,0,0,5.74-5.74V23A5.75,5.75,0,0,0,67.42,17.25ZM37.89,25.82H71.66V73.74H37.89Zm4.25-7.07H67.42A4.25,4.25,0,0,1,71.66,23v1.33H37.89V23A4.25,4.25,0,0,1,42.14,18.75ZM67.42,85.4H42.14a4.25,4.25,0,0,1-4.25-4.24V75.24H71.66v5.92A4.25,4.25,0,0,1,67.42,85.4Z"/><path d="M54.77,76.91A3.17,3.17,0,1,0,58,80.09,3.18,3.18,0,0,0,54.77,76.91Zm0,4.84a1.67,1.67,0,1,1,1.68-1.66A1.67,1.67,0,0,1,54.77,81.75Z"/><path d="M51.3,22.26h7a.75.75,0,0,0,0-1.5h-7a.75.75,0,0,0,0,1.5Z"/></g></g></svg>